<svg t="MjUwMDgy" width="121" height="112" viewBox="0 0 121 112" xmlns="http://www.w3.org/2000/svg"><g fill="none" fill-rule="evenodd" style="opacity:0.6;"><g fill="#b2bcc4"><path d="M86.87 77.311c-2.779 0-5.077-2.24-5.077-5.066v-22.13c0-4.692 4.329-10.77 4.542-11.037a.658.658 0 0 1 .535-.267c.214 0 .374.107.534.267.16.266 4.543 6.452 4.543 11.038v2.56c0 .053 0 .16-.054.213l-1.656 4.372 1.442.853c.214.107.321.32.321.534v13.597a5.042 5.042 0 0 1-1.496 3.573c-1.016.96-2.298 1.493-3.634 1.493zm-.054-36.74c-1.122 1.76-3.794 6.132-3.794 9.545v22.13c0 2.079 1.71 3.785 3.794 3.785 1.016 0 1.978-.373 2.672-1.12a3.792 3.792 0 0 0 1.123-2.666V59.021l-1.55-.96a.612.612 0 0 1-.267-.746l1.817-4.746v-2.453c.053-3.306-2.619-7.732-3.795-9.545z"/><path d="M85.638 85.867c-.238 0-.409-.262-.409-.628l-.034-34.678c0-.366.17-.628.409-.628.238 0 .408.262.408.628l.034 34.678c0 .314-.17.628-.408.628zM77.763 84.156c-.367 0-.628-.266-.628-.638l-.053-62.891c0-.372.262-.638.628-.638.367 0 .628.266.628.638l.053 62.89c0 .373-.262.639-.628.639zm-46.324-3.988c-.366 0-.628-.265-.628-.638l-.052-58.903c0-.372.261-.638.628-.638.366 0 .628.266.628.638l.052 58.903c0 .32-.314.638-.628.638z"/><path d="M71.777 90.946c-1.853 0-3.546-.75-4.87-2.037-1.323-1.34-2.01-3.056-2.01-4.932v-.912c0-.375.264-.643.634-.643s.635.268.635.643v.912c0 1.501.583 2.949 1.641 4.02a5.572 5.572 0 0 0 7.94 0 5.718 5.718 0 0 0 1.64-4.02c0-.375.265-.643.636-.643.37 0 .635.268.635.643 0 1.876-.688 3.592-2.011 4.932a6.717 6.717 0 0 1-4.87 2.037zM18 84.03v-.91c0-1.02.37-1.985 1.112-2.682a3.745 3.745 0 0 1 2.646-1.125h.794l46.102-.054c.37 0 .635.268.635.643 0 .376-.264.644-.635.644l-46.843.053c-.688 0-1.323.268-1.747.75a2.539 2.539 0 0 0-.74 1.77v.911a5.66 5.66 0 0 0 5.663 5.683c.37 0 .635.268.635.644-.106.375-.37.643-.741.643C21.07 91 18 87.89 18 84.03zm65.633-53.987c0-.375.265-.643.636-.643.37 0 .635.268.635.643 0 1.394 1.111 2.52 2.487 2.52 1.377 0 2.488-1.126 2.488-2.52 0-.375.265-.643.635-.643s.635.268.635.643c0 2.091-1.693 3.807-3.758 3.807-2.064 0-3.758-1.716-3.758-3.807z"/><path d="M78.07 31.052c-.368 0-.63-.267-.63-.64s.262-.639.63-.639h6.198c.368 0 .63.266.63.64 0 .372-.262.639-.63.639H78.07zM25.435 91c-.368 0-.63-.266-.63-.64 0-.372.262-.639.63-.639l46.489-.053c.367 0 .63.266.63.64 0 .372-.263.639-.63.639L25.435 91zm65.084-59.948c-.368 0-.63-.267-.63-.64v-9.485c0-1.492-.578-2.93-1.629-3.996a5.526 5.526 0 0 0-7.88 0 5.688 5.688 0 0 0-1.628 3.996c0 .373-.262.64-.63.64s-.63-.267-.63-.64c0-1.865.683-3.57 1.996-4.902A6.66 6.66 0 0 1 84.32 14c1.838 0 3.52.746 4.832 2.025 1.314 1.332 1.996 3.037 1.996 4.902v9.485c0 .32-.262.64-.63.64zM31.581 21.62c-.368 0-.63-.266-.63-.64 0-3.836 3.046-6.927 6.828-6.927.368 0 .63.267.63.64s-.262.64-.63.64c-3.099 0-5.568 2.557-5.568 5.7 0 .32-.315.587-.63.587z"/><path d="M37.345 15.337c-.369 0-.632-.321-.632-.642 0-.374.263-.642.632-.642L83.955 14c.369 0 .632.267.632.642 0 .374-.263.641-.632.641l-46.61.054zM77.74 34.263c-.368 0-.632-.268-.632-.642s.264-.642.632-.642h9.375c.369 0 .632.268.632.642s-.263.642-.632.642H77.74zM65.978 83.3c-.387 0-.664-.267-.664-.642 0-2.085 1.77-3.795 3.926-3.795 2.157 0 3.926 1.71 3.926 3.795 0 .375-.277.642-.664.642s-.663-.267-.663-.642c0-1.39-1.161-2.512-2.599-2.512-.719 0-1.382.267-1.825.748a2.475 2.475 0 0 0-.774 1.764c-.055.375-.331.642-.663.642z"/><path d="M66.28 83.3a.61.61 0 0 1-.633-.635.61.61 0 0 1 .633-.635h6.217a.61.61 0 0 1 .632.635.61.61 0 0 1-.632.635H66.28zM38.196 24.734a.61.61 0 0 1-.633-.635.61.61 0 0 1 .633-.635l34.354-.053a.61.61 0 0 1 .632.635.61.61 0 0 1-.632.635l-34.354.053zm0 6.243a.61.61 0 0 1-.633-.635.61.61 0 0 1 .633-.635l34.354-.053a.61.61 0 0 1 .632.635.61.61 0 0 1-.632.635l-34.354.053zm0 3.068a.61.61 0 0 1-.633-.635.61.61 0 0 1 .633-.635l34.354-.053a.61.61 0 0 1 .632.635.61.61 0 0 1-.632.635l-34.354.053zm0 3.122a.61.61 0 0 1-.633-.635.61.61 0 0 1 .633-.635l34.354-.053a.61.61 0 0 1 .632.635.61.61 0 0 1-.632.635l-34.354.053zm0 3.068a.61.61 0 0 1-.633-.635.61.61 0 0 1 .633-.635l34.354-.053a.61.61 0 0 1 .632.635.61.61 0 0 1-.632.635l-34.354.053zm0 3.121a.61.61 0 0 1-.633-.634.61.61 0 0 1 .633-.635l34.354-.053a.61.61 0 0 1 .632.635.61.61 0 0 1-.632.635l-34.354.052zm0 3.069a.61.61 0 0 1-.633-.635.61.61 0 0 1 .633-.635l34.354-.053a.61.61 0 0 1 .632.635.61.61 0 0 1-.632.635l-34.354.053zm0 3.121a.61.61 0 0 1-.633-.634.61.61 0 0 1 .633-.635l34.354-.053a.61.61 0 0 1 .632.635.61.61 0 0 1-.632.634l-34.354.053zm.105 9.63a.61.61 0 0 1-.632-.636.61.61 0 0 1 .632-.635l34.354-.052a.61.61 0 0 1 .632.634.61.61 0 0 1-.632.635l-34.354.053zm-.105 6.295a.61.61 0 0 1-.633-.635.61.61 0 0 1 .633-.635l34.354-.053a.61.61 0 0 1 .632.635.61.61 0 0 1-.632.635l-34.354.053zm0 3.068a.61.61 0 0 1-.633-.634.61.61 0 0 1 .633-.635l34.354-.053a.61.61 0 0 1 .632.635.61.61 0 0 1-.632.634l-34.354.053zm.052 3.069a.61.61 0 0 1-.632-.635.61.61 0 0 1 .632-.635l34.354-.053a.61.61 0 0 1 .633.635.61.61 0 0 1-.633.635l-34.354.053zm0 3.121a.61.61 0 0 1-.632-.635.61.61 0 0 1 .632-.634l34.354-.053a.61.61 0 0 1 .633.635.61.61 0 0 1-.633.634l-34.354.053zm-.052-22.114a.61.61 0 0 1-.633-.635.61.61 0 0 1 .633-.635h18.757a.61.61 0 0 1 .633.635.61.61 0 0 1-.633.635H38.196z"/></g><g transform="translate(0 1)"><path d="M5.834 60.242c.47 0 .852.382.852.853l-.001 4.284h4.396a.848.848 0 1 1 0 1.698H6.685v4.285a.852.852 0 0 1-1.703 0l-.001-4.286H.848a.848.848 0 0 1 0-1.696h4.133v-4.285c0-.471.382-.853.853-.853z" fill="#b2bcc4"/><ellipse fill="#b2bcc4" cx="57" cy="107" rx="40" ry="4"/><path d="M11.93 7.398V1.087a1.216 1.216 0 0 1 1.738-1.098l6.638 3.155a1.216 1.216 0 0 1 0 2.197l-6.638 3.155a1.216 1.216 0 0 1-1.738-1.098z" fill="#b2bcc4"/><ellipse stroke="#b2bcc4" stroke-width="1.824" cx="107.366" cy="92.485" rx="5.113" ry="5.091"/><path d="M114.904 17.818c.47 0 .852.382.852.852v4.285h4.396a.848.848 0 0 1 0 1.697h-4.397l.001 4.285a.852.852 0 0 1-1.704 0v-4.285h-4.133a.848.848 0 0 1 0-1.697h4.132l.001-4.285c0-.47.382-.852.852-.852z" fill="#b2bcc4"/></g></g></svg>