<svg t="MjUwMDgy" width="124" height="113" viewBox="0 0 124 113" xmlns="http://www.w3.org/2000/svg"><g fill="none" fill-rule="evenodd" style="opacity: 0.6;"><g transform="translate(0 1)"><path d="M5.978 61.856c.483 0 .874.391.874.873L6.85 67.13h4.503a.871.871 0 1 1 0 1.743H6.851v4.402a.873.873 0 0 1-1.746 0v-4.402H.871a.871.871 0 0 1 0-1.742h4.234v-4.402c0-.482.391-.873.873-.873z" fill="#b2bcc4"/><ellipse fill="#b2bcc4" cx="57" cy="108" rx="40" ry="4"/><path d="M12.225 7.646v-6.58a1.216 1.216 0 0 1 1.74-1.098l6.907 3.29a1.216 1.216 0 0 1 0 2.196l-6.908 3.29a1.216 1.216 0 0 1-1.739-1.098z" fill="#b2bcc4"/><ellipse stroke="#b2bcc4" stroke-width="1.824" cx="110.028" cy="94.962" rx="5.239" ry="5.227"/><path d="M117.753 18.295c.482 0 .873.391.873.874v4.4l4.503.001a.871.871 0 0 1 0 1.743h-4.503v4.401a.873.873 0 1 1-1.746 0v-4.402h-4.234a.871.871 0 0 1 0-1.742h4.234v-4.401c0-.483.39-.874.873-.874z" fill="#b2bcc4"/></g><path d="M76.357 50v18.095H94v3.81H76.357V90h-3.714V71.905H55v-3.81h17.643V50h3.714zm.272-31.744c-6.709 0-13.784 3.079-19.607 9.937C51.181 21.136 44.096 18 37.378 18c-14.142 0-26.682 13.888-22.593 34.463C19.269 75.038 57.022 91 57.022 91s.028-.01.066-.028v-4.15c-.028.01-.047.02-.075.029-2.978-1.374-10.1-4.86-17.43-9.862-5.531-3.78-10.091-7.664-13.558-11.557-4.127-4.642-6.67-9.255-7.556-13.708-.933-4.717-.952-9.18-.038-13.262.82-3.685 2.355-6.925 4.56-9.625 1.828-2.245 4.023-3.997 6.53-5.22a17.857 17.857 0 0 1 7.847-1.818c2.893 0 5.748.691 8.48 2.055 3.015 1.507 5.794 3.78 8.272 6.774l2.864 3.457 2.902-3.429c2.469-2.908 5.239-5.125 8.244-6.593 2.742-1.336 5.597-2.018 8.49-2.018 2.76 0 5.417.616 7.914 1.819 2.515 1.212 4.72 2.965 6.548 5.21 4.635 5.684 6.209 13.727 4.437 22.65-.885 4.453-3.42 9.047-7.528 13.68H92.9c3.09-3.98 5.39-8.318 6.313-12.931 4.098-20.585-8.452-34.227-22.584-34.217z" fill="#b2bcc4" fill-rule="nonzero"/></g></svg>