<svg t="MjUwMDgy" width="181" height="155" viewBox="0 0 181 155" xmlns="http://www.w3.org/2000/svg"><g transform="translate(-14 -14)" fill="none" fill-rule="evenodd" style="opacity: 0.6;"><path d="M181.429 138.087V126.83a1.216 1.216 0 0 1 1.777-1.079l10.81 5.63a1.216 1.216 0 0 1 0 2.157l-10.81 5.629a1.216 1.216 0 0 1-1.777-1.079zM165.714 39.667c.79 0 1.429.64 1.429 1.428v7.072h7.155a1.417 1.417 0 0 1 0 2.833h-7.156v7.071a1.429 1.429 0 1 1-2.856 0V51h-7.155a1.417 1.417 0 0 1 0-2.833h7.154v-7.072c0-.789.64-1.428 1.43-1.428z" fill="#b2bcc4"/><ellipse fill="#b2bcc4" cx="100" cy="162.917" rx="57.143" ry="5.667"/><path d="M59.286 14.167c3.55 0 6.428 2.854 6.428 6.375 0 3.52-2.878 6.375-6.428 6.375s-6.429-2.855-6.429-6.375c0-3.521 2.878-6.375 6.429-6.375zm0 2.701c-2.043 0-3.699 1.645-3.699 3.674 0 2.028 1.656 3.673 3.699 3.673 2.042 0 3.698-1.645 3.698-3.673 0-2.03-1.656-3.674-3.698-3.674zM22.826 113.333c.69 0 1.248.559 1.248 1.248v6.29h6.432a1.245 1.245 0 0 1 0 2.49h-6.432v6.29a1.247 1.247 0 0 1-2.495 0v-6.29H15.53a1.245 1.245 0 1 1 0-2.49h6.048v-6.29c0-.69.558-1.248 1.247-1.248z" fill="#b2bcc4"/><g fill="#b2bcc4" fill-rule="nonzero"><path d="M150.325 122.929l-9.06-12.46V83.954c0-20.418-16.504-37.52-37.959-39.06v-3.386c0-1.8-1.477-3.259-3.3-3.259-1.823 0-3.301 1.46-3.301 3.26v3.4C76.9 46.551 60.397 63.606 60.397 83.955v26.512l-9.158 12.616c-1.437 1.987-1.645 3.78-.513 5.95 1.132 2.171 3.383 2.717 5.855 2.717h88.308c2.472 0 4.58-.546 5.712-2.717 1.132-2.17 1.161-4.118-.276-6.104zm-93.744 2.304l10.417-12.677v-28.6c0-17.844 15.009-33.687 33.593-33.687h.288c18.586 0 33.782 15.843 33.782 33.686v28.6l10.226 12.676H56.581v.002z"/><path d="M119.886 66.338c-.712-.547-1.576-.416-2.127.286-.55.706-.653 1.718.054 2.266 3.955 3.047 6.08 7.79 6.08 12.686v15.88a1.62 1.62 0 0 0 1.625 1.615 1.62 1.62 0 0 0 1.625-1.615v-15.88c.001-5.887-2.519-11.583-7.257-15.238zm-6.878-4.044c-1.96-.571-4.106-1.377-6.207-1.377h-.16c-.898 0-1.547 1.227-1.547 2.12s.806 1.867 1.705 1.867c1.795 0 3.627.384 5.294.87.153.044.305.128.456.128.704 0 1.352-.677 1.56-1.38.254-.858-.24-1.977-1.101-2.228zm-3.117 72.913H90.392a3.24 3.24 0 0 0-3.25 3.23 3.24 3.24 0 0 0 3.25 3.23h19.5a3.24 3.24 0 0 0 3.248-3.23 3.24 3.24 0 0 0-3.249-3.23z"/></g></g></svg>