<svg width="253" height="261" viewBox="0 0 253 261" xmlns="http://www.w3.org/2000/svg"><g fill-rule="nonzero" fill="none" style="opacity: .85;"><path d="M160.366 177.783c-7.396 10.184-33.986 4.79-33.986 4.79l-20.606-18.553-2.774-2.512 4.652-9.508s1.48.391 4.017 1.089c13.32 3.722 54.94 16.133 48.697 24.694z" fill="#EFB7B9"/><path d="M112 151.178c-.946 3.294-3.538 8.228-6.115 11.822L103 160.283 107.838 150s1.554.423 4.162 1.178zM61.866 117s-3.19 6.413-1.229 5.979c1.96-.435 1.23-5.979 1.23-5.979z" fill="#000" opacity=".1"/><path fill="#E4E4E4" d="M121 122.815V176l-53.207-2.837L65 131.281z"/><path fill="#000" opacity=".05" d="M121 122.815V176l-53.207-2.837L65 131.281z"/><path fill="#E4E4E4" d="M186.182 128.793l-.27 45.257L121 176v-53.185z"/><path fill="#000" opacity=".1" d="M186.182 128.793l-.27 45.257L121 176v-53.185z"/><path fill="#E4E4E4" d="M142.536 106L121 122.815l64.912 5.978L200 110.821zM94.554 108L121 122.815l-56 8.466-22-17.094zM131 136.706V210l-66-8v-70.719l53.586 4.572 12.414.972z"/><path fill="#E4E4E4" d="M185.912 199.298l-20.367 4.138-10.434 1.983L131 210v-73.175l54.912-8.032z"/><path fill="#000" opacity=".05" d="M185.912 128.793v70.505l-20.367 4.138-10.434 1.983L131 210v-73.175z"/><path fill="#E4E4E4" d="M65 131.281l66 5.544L122.785 154 43 147.551z"/><path fill="#FFF" opacity=".1" d="M65 131.281l66 5.544L117 154l-74-6.449z"/><path fill="#E4E4E4" d="M185.912 128.793L131 136.825 151.177 154 211 143.637z"/><path fill="#FFF" opacity=".1" d="M131 136.825L151.177 154 211 143.637 188.849 128zM106 197v11l-11-1.28V197zM91 202v4l-11-.881V202z"/><g fill="#E4E4E4"><path d="M130.693 40.02s-15.34-.952-13.547 10.132c0 0-.36 1.958 1.364 2.848 0 0 .028-.831 1.574-.545.55.096 1.11.124 1.667.084a3.407 3.407 0 0 0 2.043-.87s4.315-1.833 5.994-9.1c0 0 1.244-1.588 1.211-1.996l-2.591 1.144s.884 1.925.186 3.525c0 0-.081-3.455-.582-3.376-.1 0-1.344.67-1.344.67s1.522 3.35.371 5.791c0 0 .436-4.132-.847-5.55l-1.825 1.097s1.78 3.464.573 6.29c0 0 .311-4.336-.956-6.024l-1.655 1.327s1.675 3.417.654 5.762c0 0-.134-5.047-1.014-5.43 0 0-1.445 1.314-1.663 1.855 0 0 1.143 2.494.432 3.787 0 0-.436-3.363-.807-3.38 0 0-1.441 2.228-1.59 3.742a8.259 8.259 0 0 1 1.239-3.967c-.83.162-1.597.571-2.204 1.177 0 0 .222-1.576 2.559-1.713 0 0 1.211-1.692 1.51-1.796 0 0-2.325-.2-3.734.445 0 0 1.239-1.484 4.162-.832l1.614-1.371s-3.06-.416-4.36.045c0 0 1.494-1.313 4.8-.357l1.776-1.094s-2.607-.582-4.161-.37c0 0 1.638-.91 4.682.075l1.272-.586s-1.914-.387-2.47-.45c-.558-.061-.59-.22-.59-.22a6.427 6.427 0 0 1 3.588.416s2.725-1.01 2.669-1.185z"/><path d="M177.727 94.02s-15.378-.952-13.581 10.132c0 0-.36 1.958 1.368 2.848 0 0 .028-.831 1.582-.545a6.9 6.9 0 0 0 1.672.084 3.417 3.417 0 0 0 2.023-.865s4.33-1.838 6.014-9.105c0 0 1.242-1.584 1.194-1.991l-2.599 1.139s.887 1.925.19 3.525c0 0-.084-3.455-.582-3.376-.101 0-1.352.67-1.352.67s1.53 3.355.377 5.791c0 0 .437-4.132-.854-5.55l-1.81 1.085s1.785 3.463.575 6.29c0 0 .312-4.336-.959-6.024l-1.655 1.33s1.676 3.414.656 5.758c0 0-.134-5.047-1.016-5.43 0 0-1.449 1.315-1.671 1.855 0 0 1.149 2.495.437 3.787 0 0-.437-3.363-.81-3.38 0 0-1.444 2.229-1.594 3.742a8.27 8.27 0 0 1 1.246-3.966 4.316 4.316 0 0 0-2.213 1.177s.226-1.576 2.57-1.713c0 0 1.193-1.692 1.513-1.796 0 0-2.331-.2-3.743.445 0 0 1.242-1.485 4.168-.811l1.619-1.372s-3.072-.416-4.371.046c0 0 1.497-1.314 4.812-.358l1.78-1.093s-2.618-.578-4.176-.37c0 0 1.647-.91 4.698.074l1.275-.586s-1.918-.386-2.48-.449c-.563-.062-.591-.22-.591-.22a6.47 6.47 0 0 1 3.601.416s2.736-1.019 2.687-1.194zM93 3.645s-12.707-8.662-17.25.72c0 0-1.386 1.309-.39 2.875 0 0 .474-.61 1.665.402.424.356.892.665 1.395.922.68.345 1.465.478 2.235.379 0 0 4.73.83 10.176-3.842 0 0 1.944-.565 2.123-.902l-2.868-.452s-.296 1.923-1.778 2.784c0 0 1.832-2.678 1.357-2.871-.096-.042-1.528-.19-1.528-.19s-.55 3.353-2.881 4.608c0 0 2.648-2.924 2.323-4.668l-2.177-.107s-.375 3.562-2.969 5.09c0 0 2.652-3.144 2.498-5.086l-2.152.16s-.442 3.466-2.61 4.725c0 0 2.664-3.914 2.118-4.657 0 0-1.969.254-2.456.55 0 0-.379 2.48-1.711 3.11 0 0 1.478-2.788 1.178-2.985 0 0-2.469.956-3.439 2.04a8.003 8.003 0 0 1 3.256-2.381 4.86 4.86 0 0 0-2.552-.243s1.061-1.085 3.151.019c0 0 1.957-.675 2.29-.588 0 0-1.894-1.354-3.464-1.593 0 0 1.886-.49 4.03 1.517l2.161-.2S82.333.883 80.951.56c0 0 2.01-.227 4.334 2.208l2.132.083s-1.928-1.79-3.385-2.43c0 0 1.915.15 3.997 2.476l1.415.208s-1.44-1.266-1.89-1.593c-.45-.326-.387-.47-.387-.47a6.722 6.722 0 0 1 2.869 2.17s2.893.576 2.964.432zM140 16.476s-4.846-14.997-13.986-9.104c0 0-1.867.415-2.014 2.372 0 0 .735-.283 1.06 1.295.122.562.304 1.107.545 1.624a3.525 3.525 0 0 0 1.525 1.616s3.226 3.426 10.28 2.292c0 0 1.863.59 2.205.386l-1.986-2.039s-1.375 1.566-3.051 1.504c0 0 3.03-1.38 2.78-1.824-.051-.087-1.088-1.03-1.088-1.03s-2.407 2.712-4.989 2.534c0 0 3.817-1.138 4.596-2.907l-1.645-1.325s-2.407 2.998-5.358 2.907c0 0 3.972-1.333 4.977-3.177l-1.787-1.076s-2.384 2.878-4.854 2.787c0 0 4.417-2.023 4.429-3.003 0 0-1.697-.884-2.257-.893 0 0-1.771 2.023-3.177 1.84 0 0 2.812-1.682 2.693-2.026 0 0-2.503-.536-3.913-.104a7.422 7.422 0 0 1 3.972-.312 4.344 4.344 0 0 0-1.863-1.66s1.478-.379 2.467 1.797c0 0 1.939.503 2.145.764 0 0-.683-2.288-1.776-3.393 0 0 1.776.628 2.26 3.663l1.82 1.039s-.75-3.078-1.656-4.153c0 0 1.72.93 2.093 4.44l1.628 1.282s-.452-2.707-1.215-4.111c0 0 1.414 1.221 1.668 4.498l.99.988S137.151 12 137 11.442c-.151-.556-.028-.594-.028-.594a7.083 7.083 0 0 1 .965 3.58s1.923 2.156 2.062 2.048z" opacity=".1"/><path d="M59.787 21.072s-11.696-1.27-10.73 6.822c0 0-.349 1.402.925 2.106 0 0 .053-.602 1.235-.331.418.088.844.129 1.271.123a2.697 2.697 0 0 0 1.59-.55s3.366-1.165 4.937-6.355c0 0 1.006-1.098.985-1.396l-2.022.728s.618 1.423 0 2.554c0 0 .065-2.5-.308-2.46-.077 0-1.053.432-1.053.432s1.037 2.483.068 4.213c0 0 .488-2.973-.441-4.044l-1.435.722s1.234 2.573.2 4.57c0 0 .402-3.123-.502-4.39l-1.312.903s1.148 2.53.28 4.189c0 0 .09-3.653-.567-3.963 0 0-1.154.903-1.342 1.276 0 0 .78 1.835.19 2.753 0 0-.206-2.446-.477-2.47 0 0-1.185 1.555-1.358 2.653a5.772 5.772 0 0 1 1.098-2.822 3.36 3.36 0 0 0-1.728.767s.229-1.128 2.018-1.14c0 0 .973-1.176 1.235-1.24 0 0-1.768-.231-2.87.18 0 0 1.003-1.028 3.206-.43l1.3-.93s-2.349-.463-3.343-.162c0 0 1.192-.902 3.679-.075l1.398-.725s-1.972-.518-3.166-.424c0 0 1.286-.602 3.573.231l.994-.376s-1.447-.352-1.873-.418c-.426-.066-.442-.18-.442-.18a5.192 5.192 0 0 1 2.728.433s2.08-.647 2.059-.774z" opacity=".564"/><path d="M213 29.642s-12.707-8.656-17.25.72c0 0-1.386 1.309-.39 2.875 0 0 .474-.61 1.665.402.422.357.888.667 1.39.925.68.344 1.466.477 2.236.379 0 0 4.73.83 10.18-3.837 0 0 1.94-.569 2.123-.903l-2.86-.47s-.3 1.923-1.778 2.783c0 0 1.828-2.677 1.353-2.87-.096-.042-1.524-.19-1.524-.19s-.537 3.345-2.868 4.607c0 0 2.652-2.923 2.323-4.667l-2.177-.106s-.371 3.56-2.969 5.092c0 0 2.656-3.144 2.498-5.085l-2.157.16s-.416 3.461-2.606 4.72c0 0 2.665-3.913 2.115-4.656 0 0-1.97.254-2.456.55 0 0-.375 2.48-1.707 3.109 0 0 1.474-2.787 1.174-2.98 0 0-2.47.951-3.44 2.036a8.04 8.04 0 0 1 3.257-2.381 4.893 4.893 0 0 0-2.548-.243s1.061-1.084 3.151.019c0 0 1.953-.671 2.286-.588 0 0-1.894-1.353-3.464-1.588 0 0 1.89-.493 4.034 1.516l2.161-.2s-2.398-1.897-3.78-2.215c0 0 2.01-.231 4.33 2.203l2.136.087s-1.932-1.79-3.385-2.434c0 0 1.915.152 3.992 2.476l1.42.208s-1.436-1.281-1.886-1.615c-.45-.334-.383-.444-.383-.444a6.737 6.737 0 0 1 2.865 2.17s2.885.59 2.939.435zM222 96.503s-4.26-14.612-13.842-9.366c0 0-1.92.29-2.158 2.182 0 0 .761-.236 1.025 1.292.097.55.26 1.085.486 1.596.3.687.82 1.259 1.482 1.627 0 0 3.134 3.431 10.367 2.665 0 0 1.87.646 2.227.47l-1.916-2.05s-1.47 1.444-3.17 1.309c0 0 3.142-1.197 2.9-1.624-.05-.088-1.062-1.04-1.062-1.04s-2.567 2.496-5.191 2.205c0 0 3.94-.917 4.806-2.569l-1.62-1.348s-2.583 2.768-5.584 2.553c0 0 4.082-1.105 5.208-2.824l-1.774-1.113s-2.571 2.652-5.066 2.453c0 0 4.588-1.743 4.645-2.68 0 0-1.693-.926-2.264-.958 0 0-1.89 1.859-3.328 1.62 0 0 2.94-1.489 2.834-1.824 0 0-2.527-.626-3.98-.279a8.016 8.016 0 0 1 4.05-.116 4.32 4.32 0 0 0-1.823-1.675s1.522-.3 2.43 1.835c0 0 1.947.566 2.15.83 0 0-.595-2.23-1.66-3.335 0 0 1.781.678 2.142 3.614l1.806 1.081s-.632-2.992-1.506-4.045c0 0 1.708.97 1.94 4.352l1.62 1.305s-.345-2.617-1.058-3.99c0 0 1.39 1.237 1.503 4.389l.963.997s-.283-1.907-.405-2.45c-.121-.542 0-.618 0-.618a6.46 6.46 0 0 1 .83 3.479s1.847 2.146 1.993 2.05z" opacity=".1"/><path d="M182 62.376s-8.164-12.17-16.387-5.245c0 0-1.848.706-1.588 2.465 0 0 .702-.394 1.374.924.24.468.544.91.903 1.314a3.632 3.632 0 0 0 1.916 1.114s4.055 2.368 11.118 0c0 0 2.05.152 2.361-.09l-2.466-1.403s-1.092 1.637-2.84 1.908c0 0 2.844-1.792 2.487-2.13-.075-.07-1.344-.694-1.344-.694s-1.92 2.84-4.622 3.184c0 0 3.714-1.737 4.147-3.422l-1.983-.824s-1.862 3.092-4.933 3.586c0 0 3.81-1.934 4.483-3.742l-2.076-.594s-1.882 2.97-4.437 3.378c0 0 4.143-2.628 3.95-3.485 0 0-1.941-.446-2.521-.342 0 0-1.408 2.112-2.916 2.227 0 0 2.559-2.011 2.366-2.294 0 0-2.706.019-4.072.669a9.017 9.017 0 0 1 4.046-1.04 4.72 4.72 0 0 0-2.273-1.091s1.45-.62 2.941 1.091c0 0 2.101.063 2.383.253 0 0-1.19-1.856-2.55-2.62 0 0 1.966.2 3.104 2.76l2.101.557s-1.424-2.546-2.584-3.296c0 0 1.975.48 3.101 3.475l1.954.805s-1.038-2.275-2.101-3.34c0 0 1.718.79 2.672 3.604l1.231.675s-.79-1.652-1.067-2.108c-.277-.457-.16-.557-.16-.557.881.818 1.488 1.836 1.753 2.94 0 0 2.407 1.51 2.529 1.388zM131.998 89.677s.404-15.673-10.278-13.464c0 0-1.913-.3-2.72 1.485 0 0 .807 0 .581 1.584a7.362 7.362 0 0 0-.024 1.703c.073.768.392 1.491.908 2.057 0 0 1.925 4.335 9.031 5.808 0 0 1.578 1.213 1.973 1.147l-1.21-2.6s-1.836.963-3.414.31c0 0 3.35-.202 3.256-.704 0-.103-.694-1.353-.694-1.353s-3.204 1.665-5.605.571c0 0 4.036.309 5.355-1.045l-1.126-1.822s-3.3 1.925-6.085.79c0 0 4.217.173 5.815-1.172l-1.344-1.646s-3.257 1.818-5.565.856c0 0 4.891-.3 5.246-1.21 0 0-1.323-1.427-1.856-1.645 0 0-2.365 1.234-3.656.568 0 0 3.228-.551 3.248-.917 0 0-2.207-1.395-3.696-1.498a7.746 7.746 0 0 1 3.894 1.136 4.445 4.445 0 0 0-1.21-2.21s1.537.178 1.747 2.551c0 0 1.683 1.16 1.792 1.48 0 0 .117-2.373-.557-3.788 0 0 1.485 1.214.928 4.208l1.384 1.621s.315-3.134-.19-4.438c0 0 1.324 1.476.509 4.874l1.118 1.773s.476-2.678.222-4.253c0 0 .936 1.645.08 4.775l.614 1.276s.31-1.963.35-2.534c.041-.572.194-.61.194-.61a6.878 6.878 0 0 1-.278 3.674s1.085 2.715 1.263 2.662z"/></g><path d="M249.668 13.549s-27.284.85-23.237 19.999c0 0-.513 3.481 2.626 4.777 0 0-.008-1.45 2.754-1.214.982.078 1.975.034 2.958-.131a6.403 6.403 0 0 0 3.553-1.854s7.513-3.935 9.935-16.965c0 0 2.081-2.984 1.964-3.688l-4.515 2.435s1.718 3.238.6 6.158c0 0-.382-6.04-1.283-5.822-.174.04-2.332 1.39-2.332 1.39s2.947 5.635 1.095 10.102c0 0 .462-7.325-1.922-9.603l-3.148 2.23s3.41 5.784 1.479 10.938c0 0 .222-7.659-2.149-10.41l-2.83 2.612s3.224 5.711 1.589 9.99c0 0-.617-8.831-2.2-9.356 0 0-2.463 2.544-2.8 3.507 0 0 2.214 4.16 1.056 6.574 0 0-1.03-5.83-1.665-5.798 0 0-2.382 4.145-2.536 6.852a15 15 0 0 1 1.903-7.169 8.137 8.137 0 0 0-3.818 2.425s.277-2.798 4.388-3.391c0 0 1.969-3.15 2.54-3.399 0 0-4.171.023-6.584 1.397 0 0 2.09-2.812 7.31-2.108l2.79-2.68s-5.457-.248-7.717.801c0 0 2.544-2.554 8.474-1.415L241 18.506s-4.664-.584-7.407.04c0 0 2.833-1.873 8.304-.636l2.215-1.244s-3.412-.38-4.415-.385c-1.003-.005-1.06-.286-1.06-.286 2.13-.564 4.344-.519 6.394.132 0 0 4.734-2.28 4.637-2.578z" fill="#E4E4E4" opacity=".281"/><path d="M76.554 66.85s2.886-12.68-6.032-12.725c0 0-1.481-.574-2.414.739 0 0 .636.14.204 1.39-.15.443-.249.902-.297 1.368a3.024 3.024 0 0 0 .393 1.823s.834 3.863 6.266 6.283c0 0 1.07 1.258 1.392 1.272l-.527-2.321s-1.63.468-2.784-.342c0 0 2.714.413 2.718 0 0-.086-.33-1.217-.33-1.217s-2.833.8-4.581-.503c0 0 3.17.944 4.459.072l-.594-1.682s-2.968 1.002-5-.403c0 0 3.348.868 4.845.047l-.808-1.565s-2.902.916-4.594-.264c0 0 3.957.595 4.386-.082 0 0-.824-1.391-1.217-1.65 0 0-2.098.608-3.021-.168 0 0 2.688.106 2.75-.188 0 0-1.54-1.515-2.714-1.857a6.392 6.392 0 0 1 2.932 1.593 3.783 3.783 0 0 0-.613-2.006s1.2.41.99 2.393c0 0 1.154 1.23 1.19 1.51 0 0 .478-1.91.172-3.179 0 0 .989 1.245.056 3.587l.844 1.555s.765-2.496.57-3.644c0 0 .822 1.429-.389 4.054l.61 1.638s.815-2.1.868-3.419c0 0 .485 1.498-.712 3.9l.283 1.143s.568-1.542.693-2c.125-.458.254-.462.254-.462a5.751 5.751 0 0 1-.821 2.94s.432 2.387.573 2.37zM48 71.238s-10.589-7.695-14.374.64c0 0-1.156 1.163-.326 2.555 0 0 .395-.543 1.387.357.352.317.74.593 1.16.822.566.307 1.22.425 1.862.337 0 0 3.942.738 8.48-3.41 0 0 1.62-.506 1.773-.803l-2.39-.407s-.25 1.708-1.482 2.473c0 0 1.523-2.38 1.127-2.551-.08-.037-1.273-.168-1.273-.168s-.444 2.972-2.387 4.094c0 0 2.21-2.598 1.936-4.148l-1.814-.095s-.31 3.165-2.474 4.526c0 0 2.21-2.793 2.081-4.519l-1.797.142s-.364 3.077-2.172 4.195c0 0 2.217-3.478 1.763-4.138 0 0-1.641.226-2.047.489 0 0-.316 2.204-1.426 2.763 0 0 1.231-2.477.982-2.649 0 0-2.058.846-2.866 1.81a6.744 6.744 0 0 1 2.713-2.117 3.839 3.839 0 0 0-2.123-.215s.88-.964 2.623.017c0 0 1.63-.597 1.908-.523 0 0-1.579-1.203-2.887-1.412 0 0 1.575-.438 3.362 1.348l1.8-.178s-2.001-1.686-3.15-1.969c0 0 1.676-.205 3.609 1.958l1.776.078s-1.606-1.59-2.817-2.164c0 0 1.593.135 3.327 2.201l1.183.185s-1.197-1.139-1.571-1.435c-.375-.297-.323-.422-.323-.422a5.666 5.666 0 0 1 2.39 1.928s2.412.543 2.457.405zM208.777 110.08s-12.77-1.412-11.715 7.577c0 0-.381 1.56 1.011 2.343 0 0 .058-.67 1.349-.371.456.1.922.146 1.389.137.63-.01 1.24-.225 1.736-.613 0 0 3.678-1.295 5.377-7.064 0 0 1.1-1.225 1.076-1.553l-2.209.806s.675 1.587 0 2.845c0 0 .071-2.784-.337-2.738-.084 0-1.15.479-1.15.479s1.133 2.761.075 4.685c0 0 .533-3.303-.482-4.498l-1.568.807s1.349 2.861.223 5.083c0 0 .435-3.473-.553-4.886l-1.433 1.004s1.254 2.815.307 4.655c0 0 .098-4.062-.62-4.404 0 0-1.258 1.004-1.467 1.42 0 0 .856 2.04.209 3.061 0 0-.226-2.72-.523-2.747 0 0-1.294 1.73-1.483 2.952a6.487 6.487 0 0 1 1.2-3.14 3.61 3.61 0 0 0-1.888.854s.25-1.258 2.205-1.272c0 0 1.065-1.308 1.349-1.375 0 0-1.932-.261-3.136.197 0 0 1.096-1.141 3.506-.475l1.416-1.034s-2.535-.475-3.637-.147c0 0 1.301-1.004 4.018-.087l1.528-.804s-2.155-.575-3.46-.471c0 0 1.406-.67 3.905.257l1.085-.421s-1.581-.392-2.046-.462c-.465-.07-.482-.201-.482-.201a5.562 5.562 0 0 1 2.98.479s2.279-.733 2.245-.877zM228.79 122.08s-12.784-1.409-11.728 7.577c0 0-.378 1.56 1.013 2.343 0 0 .057-.67 1.35-.368.455.098.92.143 1.387.134a2.931 2.931 0 0 0 1.731-.61s3.679-1.295 5.38-7.068c0 0 1.104-1.221 1.077-1.553l-2.211.807s.675 1.586 0 2.845c0 0 .07-2.781-.338-2.738-.084 0-1.15.479-1.15.479s1.133 2.76.074 4.685c0 0 .533-3.303-.483-4.495l-1.57.804s1.35 2.861.223 5.083c0 0 .436-3.474-.553-4.883l-1.434 1.004s1.255 2.815.31 4.66c0 0 .095-4.067-.624-4.409 0 0-1.26 1.005-1.468 1.42 0 0 .857 2.041.209 3.062 0 0-.226-2.721-.523-2.748 0 0-1.296 1.73-1.482 2.952a6.5 6.5 0 0 1 1.198-3.14c-.7.097-1.357.393-1.89.854 0 0 .253-1.258 2.21-1.268 0 0 1.064-1.309 1.35-1.38 0 0-1.933-.257-3.138.202 0 0 1.097-1.145 3.51-.479l1.418-1.034s-2.538-.475-3.642-.147c0 0 1.303-1.004 4.023-.084l1.529-.807s-2.157-.575-3.463-.471c0 0 1.407-.67 3.908.257l1.087-.418s-1.583-.392-2.045-.465c-.463-.074-.486-.201-.486-.201a5.594 5.594 0 0 1 2.983.482s2.292-.74 2.258-.884z" fill="#E4E4E4" opacity=".1"/><g transform="translate(169 200)" fill="#E4E4E4"><ellipse opacity=".1" cx="9" cy="7.5" rx="9" ry="1.5"/><ellipse opacity=".1" cx="46" cy="29.5" rx="9" ry="1.5"/><ellipse cx="55" cy="10.5" rx="14" ry="2.5"/><path d="M60.654 5.989a3.747 3.747 0 0 0 1.302-1.87c.17-.743-.163-1.632-.908-1.904-.837-.304-1.731.246-2.412.802-.68.556-1.452 1.193-2.34 1.077.927-.8 1.345-2.004 1.102-3.172a1.3 1.3 0 0 0-.306-.647c-.466-.472-1.307-.269-1.865.103-1.769 1.184-2.262 3.467-2.272 5.523-.177-.74-.027-1.513-.03-2.263-.004-.75-.225-1.617-.902-2.011a2.803 2.803 0 0 0-1.36-.324c-.797-.026-1.685.049-2.226.602-.68.685-.5 1.84.085 2.587.585.746 1.48 1.228 2.303 1.752a5.046 5.046 0 0 1 1.647 1.49c.048.085.088.174.119.266h4.987a13.803 13.803 0 0 0 3.076-2.011z"/></g><ellipse fill="#E4E4E4" opacity=".1" cx="98" cy="259.5" rx="9" ry="1.5"/><g transform="translate(0 216)"><ellipse fill="#E4E4E4" opacity=".1" cx="9" cy="10.5" rx="9" ry="1.5"/><path d="M3 2.86s5.37-.163 6.997-1.3c1.627-1.137 8.267-2.49 8.67-.668.402 1.823 8.074 9.058 2.007 9.106-6.066.049-14.095-.93-15.711-1.902C3.346 7.125 3 2.86 3 2.86z" fill="#A8A8A8" opacity=".6"/><path d="M20.783 9.384c-6.069.047-14.101-.912-15.718-1.865C3.833 6.796 3.343 4.2 3.178 3H3s.35 4.185 1.956 5.134c1.607.949 9.65 1.912 15.719 1.864 1.75 0 2.355-.614 2.324-1.506-.245.544-.914.881-2.216.892z" fill="#000" opacity=".1"/></g></g></svg>