<svg t="MjUwMDgy" width="121" height="113" viewBox="0 0 121 113" xmlns="http://www.w3.org/2000/svg"><g fill="none" fill-rule="evenodd" style="opacity: 0.6;"><g transform="translate(0 1)"><path d="M5.834 60.78c.47 0 .852.382.852.852l-.001 4.33 4.389.001a.856.856 0 1 1 0 1.712H6.685v4.331a.852.852 0 0 1-1.703 0l-.001-4.33H.856a.856.856 0 0 1 0-1.713h4.125v-4.33c0-.471.382-.853.853-.853z" fill="#b2bcc4"/><ellipse fill="#b2bcc4" cx="60" cy="108" rx="40" ry="4"/><path d="M11.93 7.474V1.087A1.216 1.216 0 0 1 13.67-.01l6.659 3.194a1.216 1.216 0 0 1 0 2.193L13.67 8.57a1.216 1.216 0 0 1-1.741-1.096z" fill="#b2bcc4"/><ellipse stroke="#b2bcc4" stroke-width="1.824" cx="107.366" cy="93.311" rx="5.113" ry="5.136"/><path d="M114.904 17.977c.47 0 .852.382.852.852v4.33l4.388.001a.856.856 0 1 1 0 1.712h-4.389l.001 4.331a.852.852 0 0 1-1.704 0v-4.33h-4.126a.856.856 0 0 1 0-1.713h4.125l.001-4.33c0-.471.382-.853.852-.853z" fill="#b2bcc4"/></g><path d="M36.418 55.424h22.976c.907 0 1.641.568 1.641 1.27 0 .702-.734 1.27-1.64 1.27H36.417c-.907 0-1.642-.568-1.642-1.27 0-.702.735-1.27 1.642-1.27zM64.29 87.727H34.598c-1.822 0-3.299-1.465-3.299-3.272v-58.91c0-1.807 1.477-3.272 3.3-3.272h49.485c1.822 0 3.3 1.465 3.3 3.272v31.091h3.298v-31.09c0-3.616-2.954-6.546-6.598-6.546H34.598C30.954 19 28 21.93 28 25.545v58.91C28 88.07 30.954 91 34.598 91H64.29v-3.273zm-26.125-47.55H36.47c-.936 0-1.695.568-1.695 1.27 0 .702.759 1.27 1.695 1.27h1.694v-2.54zm44.08 0h-41.54v2.54h41.54c.917 0 1.66-.568 1.66-1.27 0-.702-.743-1.27-1.66-1.27zm-.049 25.609s-5.404-9.765-13.687-4.627C54.126 70.082 82.342 91 82.342 91s27.924-20.902 13.541-29.84c-8.3-5.156-13.687 4.626-13.687 4.626zm.432 21.826s-21.48-15.783-12.713-23.23c6.07-5.157 12.713 6.288 12.713 6.288s4.232-9.979 12.485-6.288c9.4 6.288-12.485 23.23-12.485 23.23z" fill="#b2bcc4" fill-rule="nonzero"/></g></svg>