<svg t="MjUwMDgy" width="129" height="111" viewBox="0 0 129 111" xmlns="http://www.w3.org/2000/svg"><g fill="none" fill-rule="evenodd" style="opacity: 0.6;"><g transform="translate(0 1)"><path d="M5.978 66c.483 0 .874.391.874.873L6.85 71.32h4.496a.879.879 0 0 1 0 1.758H6.85v4.448a.873.873 0 0 1-1.746 0v-4.448H.879a.879.879 0 0 1 0-1.757l4.226-.001v-4.447c0-.482.391-.873.873-.873z" fill="#b2bcc4"/><ellipse fill="#b2bcc4" cx="63" cy="106" rx="40" ry="4"/><path d="M12 7.722V1.066A1.216 1.216 0 0 1 13.743-.03l6.927 3.328a1.216 1.216 0 0 1 0 2.192l-6.927 3.328A1.216 1.216 0 0 1 12 7.722z" fill="#b2bcc4"/><circle stroke="#b2bcc4" stroke-width="1.824" cx="118" cy="88" r="4"/><path d="M121.978 16c.483 0 .874.391.874.873l-.001 4.447h4.496a.879.879 0 0 1 0 1.758h-4.496v4.448a.873.873 0 1 1-1.746 0v-4.448h-4.226a.879.879 0 0 1 0-1.757l4.226-.001v-4.447c0-.482.391-.873.873-.873z" fill="#b2bcc4"/></g><path d="M36.804 56.396c-1.01 0-2.065-1.038-2.065-2.12V38.028c0-4.196 3.075-7.355 7.16-7.355h28.643c1.01 0 2.064 1.038 2.064 2.12 0 1.039-.527 1.58-1.537 1.58H41.944c-1.538 0-3.075 1.58-3.075 3.7v16.833c0 .993-1.055 1.49-2.065 1.49zm32.727 34.162c-1.537 0-2.548-.542-3.602-1.58l-9.225-8.935H42.427c-4.085 0-7.16-3.159-7.16-7.356V63.21h-6.634c-3.602 0-6.633-3.158-6.633-7.355v-32.04C22 20.113 25.075 17 28.633 17h45.028c3.602 0 7.16 3.159 7.16 7.356v6.814H96.68c4.085-.542 7.16 2.617 7.16 6.814v34.162c0 4.197-3.075 7.355-7.16 7.355H82.359l-9.225 9.974c-1.01.586-2.548 1.083-3.603 1.083zM28.633 20.655c-1.537 0-2.548 1.58-2.548 3.16v32.04c0 2.12 1.01 3.159 2.548 3.159h8.171c1.01 0 2.065 1.038 2.065 2.12v11.057c0 2.12 1.537 3.7 3.602 3.7h15.331c.527 0 1.01 0 1.538.542l9.708 9.973c.527.541 1.01.541 1.538 0l9.708-9.973c.527-.542 1.01-.542 1.537-.542h15.332c2.064 0 3.602-1.58 3.602-3.7V38.029c0-2.12-1.538-3.7-3.602-3.7H79.24c-1.01 0-2.065-1.038-2.065-2.121v-8.394c0-1.58-1.538-3.159-3.075-3.159H28.633zm66.509 36.283c0 1.038-1.01 2.12-2.065 2.12H46.512c-1.01 0-2.064-1.037-2.064-2.12 0-1.038 1.01-2.121 2.064-2.121h47.049c1.054 0 1.581 1.083 1.581 2.12z" fill="#b2bcc4" fill-rule="nonzero"/></g></svg>