<svg t="MjUwMDgy" width="181" height="152" viewBox="0 0 181 152" xmlns="http://www.w3.org/2000/svg"><g transform="translate(-14 -17)" fill="#b2bcc4" fill-rule="evenodd" style="opacity: 0.6;"><path d="M181.429 138.087V126.83a1.216 1.216 0 0 1 1.777-1.079l10.81 5.63a1.216 1.216 0 0 1 0 2.157l-10.81 5.629a1.216 1.216 0 0 1-1.777-1.079zM168.571 34c.395 0 .715.32.715.714v5.66l5.72.001a.708.708 0 1 1 0 1.417l-5.72-.001v5.661a.714.714 0 1 1-1.429 0v-5.661h-5.72a.708.708 0 1 1 0-1.416l5.72-.001v-5.66c0-.394.32-.714.714-.714z"/><ellipse cx="100" cy="162.917" rx="57.143" ry="5.667"/><path d="M39.286 17c3.55 0 6.428 2.854 6.428 6.375 0 3.52-2.878 6.375-6.428 6.375s-6.429-2.854-6.429-6.375c0-3.52 2.878-6.375 6.429-6.375zm0 2.702c-2.043 0-3.699 1.644-3.699 3.673s1.656 3.673 3.699 3.673c2.042 0 3.698-1.644 3.698-3.673s-1.656-3.673-3.698-3.673zM22.826 113.333c.69 0 1.248.559 1.248 1.248v6.29h6.432a1.245 1.245 0 0 1 0 2.49h-6.432v6.29a1.247 1.247 0 0 1-2.495 0v-6.29H15.53a1.245 1.245 0 1 1 0-2.49h6.048v-6.29c0-.69.558-1.248 1.247-1.248zM140.602 134.583H59.4c-5.98 0-10.83-4.842-10.83-10.802V58.97c0-5.956 4.85-10.802 10.83-10.802h81.2c5.972 0 10.828 4.846 10.828 10.802V69.77a2.709 2.709 0 0 1-2.091 2.632c-3.091 1.238-30.953 16.977-47.995 26.718a2.718 2.718 0 0 1-2.801-.066l-29.772-18.9a2.705 2.705 0 0 1-.832-3.731 2.718 2.718 0 0 1 3.74-.832l28.395 18.03c30.89-17.656 41.828-23.57 45.942-25.553v-9.1c0-2.978-2.433-5.401-5.413-5.401H59.4c-2.987 0-5.414 2.423-5.414 5.4v64.813c0 2.98 2.427 5.401 5.414 5.401h81.2c2.981 0 5.414-2.42 5.414-5.4V91.374a2.705 2.705 0 0 1 2.705-2.705 2.708 2.708 0 0 1 2.709 2.705v32.406c0 5.96-4.856 10.802-10.827 10.802z"/></g></svg>